<svg width="1600" height="900" viewBox="0 0 1600 900" fill="none" xmlns="http://www.w3.org/2000/svg">
  <rect width="1600" height="900" fill="#050816"/>
  <rect x="0" y="0" width="1600" height="900" fill="url(#paint0_linear)" fill-opacity="0.85"/>
  <circle cx="1292" cy="396" r="292" fill="#FACC15" fill-opacity="0.18"/>
  <circle cx="344" cy="774" r="240" fill="#1D4ED8" fill-opacity="0.16"/>
  <g opacity="0.18">
    <path d="M1050 80L1500 80L1200 820L740 820L1050 80Z" fill="#F59E0B"/>
    <path d="M1180 120L1390 120L1205 760L985 760L1180 120Z" fill="#FACC15"/>
  </g>
  <g opacity="0.08" stroke="white">
    <path d="M0 120H1600"/>
    <path d="M0 240H1600"/>
    <path d="M0 360H1600"/>
    <path d="M0 480H1600"/>
    <path d="M0 600H1600"/>
    <path d="M0 720H1600"/>
    <path d="M0 840H1600"/>
    <path d="M140 0L0 900"/>
    <path d="M340 0L200 900"/>
    <path d="M540 0L400 900"/>
    <path d="M740 0L600 900"/>
    <path d="M940 0L800 900"/>
    <path d="M1140 0L1000 900"/>
    <path d="M1340 0L1200 900"/>
    <path d="M1540 0L1400 900"/>
  </g>
  <defs>
    <linearGradient id="paint0_linear" x1="208" y1="92" x2="1312" y2="824" gradientUnits="userSpaceOnUse">
      <stop stop-color="#020617"/>
      <stop offset="0.5" stop-color="#081126"/>
      <stop offset="1" stop-color="#0F172A"/>
    </linearGradient>
  </defs>
</svg>
